<?xml version="1.0" standalone="no"?><!-- Generator: Gravit.io --><svg xmlns="http://www.w3.org/2000/svg" xmlns:xlink="http://www.w3.org/1999/xlink" style="isolation:isolate" viewBox="0 0 25.524 31.676" width="25.524" height="31.676"><defs><clipPath id="_clipPath_IRRQ9b5LyiOe5pophd1z0aU65vwGyjXL"><rect width="25.524" height="31.676"/></clipPath></defs><g clip-path="url(#_clipPath_IRRQ9b5LyiOe5pophd1z0aU65vwGyjXL)"><g id="Group"><g id="Group"><path d=" M 4.375 3.328 C 4.362 3.395 4.229 4.402 4.733 5.463 C 3.673 6.63 3.46 8.406 4.322 9.812 C 5.37 11.536 7.611 12.08 9.334 11.032 C 9.666 10.834 9.957 10.582 10.196 10.303 C 10.806 10.329 11.535 10.21 12.264 9.745 C 12.702 9.48 12.834 8.91 12.569 8.473 L 12.569 8.459 C 12.29 8.021 11.72 7.889 11.296 8.167 C 11.23 8.207 11.15 8.247 11.084 8.287 C 11.111 8.021 11.111 7.743 11.071 7.477 C 11.562 6.974 12.212 6.894 12.251 6.894 C 12.755 6.854 13.14 6.417 13.1 5.9 C 13.1 5.86 13.087 5.82 13.087 5.781 C 12.994 5.33 12.583 4.999 12.106 5.038 C 12.053 5.038 11.178 5.118 10.33 5.688 C 10.277 5.622 10.224 5.555 10.171 5.489 C 10.383 4.495 11.298 4.136 11.351 4.123 C 11.789 3.977 12.04 3.526 11.961 3.089 C 11.948 3.05 11.934 2.996 11.921 2.957 C 11.762 2.466 11.232 2.214 10.741 2.373 C 10.675 2.399 9.19 2.917 8.553 4.455 C 8.486 4.429 8.406 4.415 8.34 4.389 C 8.42 3.779 8.791 3.355 8.818 3.328 C 9.07 3.062 9.136 2.691 9.017 2.373 C 8.963 2.241 8.897 2.121 8.791 2.016 C 8.419 1.657 7.836 1.671 7.478 2.042 C 7.425 2.095 6.563 3.023 6.484 4.402 C 6.431 4.415 6.391 4.429 6.338 4.441 C 6.192 4.004 6.232 3.633 6.232 3.593 C 6.285 3.236 6.126 2.904 5.847 2.705 C 5.728 2.625 5.595 2.572 5.45 2.546 C 4.919 2.479 4.455 2.824 4.375 3.328 Z " fill="rgb(255,199,172)"/><path d=" M 7.438 12.039 C 5.993 12.039 4.68 11.297 3.924 10.063 C 3.036 8.605 3.156 6.723 4.203 5.396 C 3.792 4.336 3.912 3.381 3.925 3.275 C 4.031 2.598 4.614 2.082 5.304 2.082 C 5.37 2.082 5.437 2.082 5.503 2.095 C 5.715 2.121 5.914 2.201 6.1 2.334 C 6.246 2.439 6.379 2.559 6.472 2.705 C 6.764 2.135 7.082 1.79 7.148 1.724 C 7.412 1.445 7.77 1.3 8.154 1.3 C 8.512 1.3 8.857 1.432 9.122 1.684 C 9.281 1.83 9.4 2.016 9.467 2.214 C 9.507 2.307 9.52 2.413 9.533 2.506 C 10.09 2.095 10.567 1.936 10.607 1.923 C 10.753 1.869 10.899 1.843 11.058 1.843 C 11.655 1.843 12.185 2.228 12.371 2.784 C 12.398 2.85 12.411 2.917 12.424 2.983 C 12.543 3.659 12.159 4.309 11.509 4.534 C 11.496 4.534 11.323 4.6 11.125 4.76 C 11.629 4.588 12.026 4.548 12.08 4.548 C 12.12 4.548 12.146 4.548 12.173 4.548 C 12.836 4.548 13.406 5.026 13.539 5.675 C 13.552 5.728 13.552 5.794 13.565 5.848 C 13.618 6.603 13.048 7.266 12.292 7.332 L 12.292 7.332 C 12.292 7.332 11.987 7.372 11.682 7.558 C 11.722 7.558 11.748 7.558 11.788 7.558 C 12.265 7.558 12.716 7.796 12.968 8.207 L 12.982 8.234 C 13.366 8.87 13.168 9.732 12.531 10.13 C 11.882 10.541 11.165 10.753 10.423 10.753 C 10.184 11.005 9.906 11.231 9.601 11.403 C 8.923 11.827 8.194 12.039 7.438 12.039 Z  M 5.291 2.996 C 5.065 2.996 4.867 3.169 4.827 3.394 C 4.827 3.407 4.695 4.322 5.145 5.263 L 5.278 5.541 L 5.065 5.768 C 4.124 6.802 3.978 8.366 4.707 9.573 C 5.29 10.527 6.311 11.097 7.425 11.097 C 8.008 11.097 8.578 10.938 9.082 10.633 C 9.36 10.461 9.612 10.248 9.838 9.996 L 9.984 9.824 L 10.209 9.838 C 10.249 9.838 10.289 9.838 10.342 9.838 C 10.939 9.838 11.509 9.679 12.012 9.347 C 12.224 9.214 12.29 8.923 12.158 8.71 C 12.065 8.564 11.919 8.485 11.76 8.485 C 11.667 8.485 11.588 8.511 11.508 8.55 C 11.428 8.604 11.349 8.644 11.243 8.696 L 10.501 9.027 L 10.58 8.218 C 10.607 7.98 10.607 7.74 10.58 7.502 L 10.554 7.29 L 10.7 7.134 C 11.297 6.511 12.092 6.417 12.172 6.405 C 12.437 6.379 12.623 6.167 12.61 5.914 C 12.61 5.901 12.61 5.875 12.597 5.861 C 12.557 5.635 12.345 5.476 12.106 5.49 C 12.08 5.49 11.311 5.556 10.542 6.06 L 10.184 6.298 L 9.918 5.953 C 9.878 5.9 9.825 5.848 9.772 5.781 L 9.613 5.608 L 9.666 5.382 C 9.918 4.15 11.019 3.712 11.138 3.672 C 11.364 3.592 11.483 3.38 11.443 3.154 C 11.443 3.128 11.429 3.115 11.429 3.089 C 11.363 2.902 11.191 2.771 10.991 2.771 C 10.938 2.771 10.885 2.784 10.845 2.797 C 10.832 2.797 9.492 3.261 8.935 4.613 L 8.777 5.012 L 8.367 4.88 C 8.3 4.866 8.247 4.84 8.181 4.826 L 7.783 4.721 L 7.836 4.31 C 7.929 3.58 8.34 3.09 8.419 2.997 C 8.552 2.864 8.592 2.679 8.526 2.52 C 8.499 2.454 8.46 2.387 8.406 2.347 C 8.234 2.175 7.929 2.175 7.757 2.36 C 7.743 2.374 6.961 3.209 6.881 4.429 L 6.868 4.76 L 6.55 4.853 C 6.51 4.867 6.47 4.88 6.417 4.893 L 5.98 5.025 L 5.834 4.601 C 5.648 4.058 5.702 3.594 5.715 3.54 C 5.741 3.354 5.662 3.195 5.516 3.09 C 5.463 3.05 5.396 3.023 5.317 3.01 C 5.343 3.01 5.317 2.996 5.291 2.996 Z " fill="rgb(35,31,32)"/></g><g id="Group"><path d=" M 5.489 29.581 L 6.563 28.494 L 6.563 28.494 C 6.563 28.494 6.563 28.48 6.549 28.48 C 6.536 28.466 6.536 28.44 6.523 28.427 C 6.483 28.334 6.404 28.188 6.311 27.976 C 6.218 27.764 6.125 27.486 6.019 27.167 C 5.913 26.849 5.82 26.464 5.741 26.053 C 5.648 25.643 5.595 25.178 5.542 24.688 C 5.502 24.198 5.476 23.667 5.489 23.124 C 5.502 22.58 5.529 22.01 5.609 21.427 C 5.622 21.281 5.649 21.135 5.662 20.989 C 5.688 20.843 5.715 20.697 5.728 20.551 C 5.768 20.259 5.834 19.968 5.887 19.676 C 6.006 19.092 6.165 18.509 6.325 17.939 C 6.497 17.369 6.683 16.812 6.882 16.282 C 6.935 16.149 6.975 16.016 7.028 15.885 C 7.081 15.752 7.134 15.619 7.187 15.5 C 7.293 15.248 7.386 14.996 7.505 14.758 C 7.611 14.519 7.717 14.28 7.823 14.055 C 7.929 13.829 8.035 13.617 8.141 13.406 C 8.247 13.193 8.34 12.995 8.433 12.809 C 8.539 12.623 8.632 12.451 8.712 12.279 C 8.805 12.12 8.884 11.961 8.964 11.814 C 9.044 11.668 9.123 11.549 9.189 11.43 C 9.454 10.966 9.613 10.687 9.613 10.687 L 3.673 7.65 C 3.673 7.65 3.527 7.982 3.288 8.565 C 3.222 8.711 3.156 8.87 3.089 9.043 C 3.023 9.229 2.943 9.414 2.864 9.626 C 2.785 9.839 2.705 10.051 2.613 10.289 C 2.52 10.527 2.44 10.767 2.361 11.031 C 2.268 11.297 2.175 11.562 2.095 11.841 C 2.016 12.119 1.923 12.411 1.83 12.716 C 1.737 13.007 1.658 13.339 1.578 13.657 C 1.538 13.816 1.498 13.975 1.446 14.147 C 1.406 14.306 1.366 14.479 1.327 14.651 C 1.168 15.328 1.035 16.03 0.916 16.746 C 0.796 17.462 0.717 18.205 0.651 18.947 C 0.624 19.318 0.598 19.69 0.585 20.074 C 0.585 20.26 0.572 20.445 0.572 20.632 C 0.572 20.818 0.572 21.003 0.572 21.189 C 0.572 21.931 0.638 22.661 0.704 23.377 C 0.784 24.08 0.903 24.77 1.049 25.405 C 1.195 26.055 1.367 26.652 1.553 27.209 C 1.739 27.766 1.938 28.256 2.15 28.694 C 2.349 29.132 2.548 29.503 2.733 29.821 C 2.919 30.126 3.078 30.378 3.197 30.55 C 3.263 30.643 3.33 30.723 3.356 30.776 C 3.409 30.856 3.409 30.856 3.422 30.856 L 5.489 29.581 L 5.489 29.581 Z " fill="rgb(255,199,172)"/><path d=" M 3.262 31.676 L 2.97 31.212 C 2.957 31.198 2.943 31.172 2.917 31.146 C 2.891 31.107 2.837 31.041 2.785 30.974 L 2.745 30.92 C 2.586 30.695 2.413 30.43 2.241 30.151 C 2.042 29.819 1.844 29.422 1.631 28.984 C 1.419 28.546 1.22 28.016 1.021 27.446 C 0.835 26.929 0.663 26.319 0.504 25.59 C 0.358 24.941 0.239 24.237 0.146 23.495 C 0.053 22.673 0.013 21.931 0 21.241 L 0 20.671 L 0.013 20.101 C 0.013 19.784 0.04 19.452 0.066 19.147 L 0.079 18.961 C 0.132 18.232 0.225 17.502 0.344 16.707 C 0.477 15.911 0.609 15.208 0.768 14.559 L 0.808 14.4 C 0.835 14.281 0.861 14.162 0.888 14.055 L 1.021 13.565 C 1.047 13.459 1.074 13.352 1.101 13.247 C 1.154 13.035 1.22 12.809 1.287 12.598 L 1.552 11.736 C 1.618 11.537 1.672 11.351 1.738 11.179 C 1.765 11.086 1.804 11.006 1.831 10.913 C 1.858 10.82 1.884 10.754 1.911 10.675 C 1.977 10.489 2.031 10.317 2.097 10.157 L 2.615 8.804 L 3.41 6.908 L 10.477 10.514 L 9.509 12.171 L 8.979 13.152 C 8.926 13.257 8.859 13.378 8.807 13.497 C 8.767 13.576 8.727 13.643 8.687 13.723 C 8.661 13.789 8.621 13.869 8.581 13.948 C 8.515 14.081 8.449 14.214 8.395 14.346 L 8.077 15.048 C 8.011 15.194 7.945 15.354 7.878 15.513 C 7.838 15.606 7.812 15.699 7.772 15.778 L 7.613 16.163 C 7.587 16.229 7.56 16.309 7.533 16.401 L 7.48 16.547 C 7.294 17.024 7.122 17.541 6.937 18.164 C 6.765 18.761 6.619 19.317 6.513 19.848 L 6.473 20.034 C 6.433 20.26 6.38 20.472 6.353 20.684 C 6.327 20.843 6.3 20.975 6.287 21.122 L 6.234 21.546 C 6.168 22.037 6.141 22.554 6.128 23.177 C 6.128 23.707 6.142 24.225 6.181 24.675 C 6.234 25.219 6.3 25.63 6.367 25.975 C 6.447 26.386 6.539 26.745 6.632 27.036 C 6.725 27.342 6.818 27.594 6.897 27.792 C 6.99 28.018 7.056 28.163 7.083 28.203 L 7.441 28.892 L 6.897 29.065 C 6.738 29.224 6.394 29.569 6.208 29.754 C 6.02 29.939 5.9 30.059 5.821 30.125 L 5.821 30.125 L 5.808 30.125 C 5.782 30.138 5.768 30.151 5.755 30.165 L 3.262 31.676 L 3.262 31.676 Z  M 1.18 20.657 L 1.18 21.201 C 1.18 21.85 1.233 22.54 1.312 23.323 C 1.392 24.025 1.511 24.688 1.644 25.285 C 1.803 25.974 1.962 26.531 2.135 27.022 C 2.321 27.565 2.519 28.043 2.705 28.454 C 2.891 28.865 3.089 29.223 3.262 29.528 C 3.395 29.754 3.514 29.925 3.594 30.058 L 5.106 29.117 C 5.159 29.063 5.238 28.984 5.331 28.878 C 5.543 28.666 5.703 28.507 5.835 28.374 C 5.809 28.321 5.782 28.269 5.755 28.202 C 5.662 27.976 5.556 27.685 5.45 27.341 C 5.344 27.009 5.251 26.612 5.158 26.16 C 5.078 25.775 5.012 25.325 4.946 24.728 C 4.906 24.224 4.88 23.68 4.893 23.097 C 4.906 22.42 4.946 21.864 5.013 21.333 L 5.066 20.882 C 5.092 20.736 5.119 20.591 5.132 20.444 C 5.158 20.206 5.212 19.967 5.264 19.742 L 5.304 19.556 C 5.423 18.986 5.569 18.403 5.755 17.779 C 5.954 17.13 6.14 16.573 6.325 16.083 L 6.378 15.95 C 6.404 15.857 6.444 15.764 6.484 15.684 L 6.643 15.287 C 6.683 15.194 6.709 15.114 6.749 15.035 C 6.815 14.863 6.881 14.69 6.974 14.517 L 7.279 13.828 C 7.345 13.669 7.425 13.523 7.491 13.39 C 7.531 13.311 7.57 13.244 7.597 13.165 C 7.637 13.085 7.677 13.006 7.703 12.939 C 7.769 12.806 7.836 12.673 7.902 12.554 L 8.446 11.546 L 8.778 10.963 L 3.978 8.51 L 3.646 9.308 L 3.182 10.541 C 3.129 10.687 3.076 10.859 3.01 11.019 C 2.984 11.098 2.957 11.178 2.93 11.257 C 2.904 11.337 2.864 11.43 2.837 11.523 C 2.784 11.695 2.718 11.868 2.665 12.04 L 2.4 12.915 C 2.334 13.101 2.294 13.299 2.228 13.511 C 2.202 13.617 2.175 13.724 2.148 13.829 L 2.016 14.307 C 1.989 14.4 1.963 14.506 1.95 14.625 L 1.91 14.797 C 1.764 15.421 1.632 16.097 1.513 16.853 C 1.393 17.622 1.314 18.325 1.261 19.014 L 1.248 19.2 C 1.221 19.505 1.208 19.81 1.195 20.101 L 1.18 20.657 L 1.18 20.657 Z " fill="rgb(35,31,32)"/></g><g id="Group"><path d=" M 8.446 14.347 L 10.461 10.767 L 3.395 7.253 L 1.724 11.085 L 8.446 14.347 Z " fill="rgb(241,242,242)"/><rect x="2.098" y="10.381" width="7.677" height="1.194" transform="matrix(-0.893,-0.451,0.451,-0.893,6.289,23.453)" fill="rgb(0,0,255)"/><path d=" M 10.886 10.355 C 10.952 10.421 11.005 10.501 11.032 10.593 C 11.085 10.752 11.058 10.925 10.979 11.057 L 8.95 14.637 C 8.791 14.915 8.46 15.022 8.168 14.876 L 1.446 11.614 C 1.154 11.468 1.035 11.136 1.154 10.844 L 2.824 7.012 C 2.891 6.868 3.01 6.749 3.169 6.696 C 3.328 6.642 3.487 6.656 3.633 6.722 L 10.714 10.248 C 10.793 10.263 10.846 10.303 10.886 10.355 Z  M 8.194 13.564 L 9.626 11.018 L 3.673 8.062 L 2.48 10.793 L 8.194 13.564 L 8.194 13.564 Z " fill="rgb(35,31,32)"/></g></g><g id="Group"><g id="Group"><path d=" M 23.748 2.731 C 23.748 2.797 23.695 3.818 23.005 4.759 C 23.827 6.098 23.721 7.888 22.608 9.109 C 21.255 10.607 18.948 10.726 17.45 9.374 C 17.159 9.109 16.92 8.817 16.734 8.499 C 16.124 8.406 15.434 8.154 14.798 7.571 C 14.426 7.225 14.401 6.642 14.744 6.271 C 14.744 6.271 14.744 6.271 14.758 6.257 C 15.103 5.886 15.699 5.86 16.071 6.204 C 16.137 6.257 16.19 6.31 16.257 6.35 C 16.284 6.085 16.337 5.807 16.417 5.555 C 16.032 4.971 15.409 4.773 15.355 4.759 C 14.864 4.626 14.573 4.123 14.706 3.632 C 14.72 3.592 14.732 3.553 14.745 3.526 C 14.918 3.102 15.382 2.85 15.847 2.969 C 15.9 2.983 16.747 3.208 17.478 3.937 C 17.544 3.884 17.611 3.832 17.676 3.778 C 17.663 2.77 16.814 2.24 16.775 2.214 C 16.377 1.989 16.205 1.498 16.364 1.087 C 16.377 1.048 16.404 1.008 16.43 0.954 C 16.682 0.504 17.251 0.345 17.689 0.597 C 17.755 0.637 19.109 1.419 19.453 3.05 C 19.519 3.036 19.599 3.036 19.68 3.023 C 19.719 2.414 19.428 1.936 19.414 1.896 C 19.215 1.591 19.228 1.22 19.387 0.928 C 19.453 0.809 19.56 0.702 19.68 0.623 C 20.104 0.345 20.687 0.464 20.965 0.889 C 21.005 0.942 21.694 2.016 21.509 3.395 C 21.549 3.421 21.602 3.434 21.642 3.461 C 21.868 3.063 21.893 2.679 21.907 2.651 C 21.921 2.294 22.145 1.989 22.451 1.856 C 22.583 1.802 22.716 1.776 22.862 1.776 C 23.376 1.79 23.773 2.214 23.748 2.731 Z " fill="rgb(255,199,172)"/><path d=" M 19.902 10.779 C 18.881 10.779 17.9 10.408 17.144 9.718 C 16.878 9.48 16.654 9.214 16.455 8.922 C 15.713 8.776 15.062 8.432 14.492 7.915 C 13.935 7.397 13.896 6.522 14.4 5.966 L 14.413 5.952 C 14.678 5.674 15.05 5.502 15.434 5.502 C 15.554 5.502 15.673 5.515 15.792 5.541 C 15.527 5.303 15.235 5.21 15.223 5.21 C 14.493 5.011 14.055 4.255 14.254 3.513 C 14.268 3.46 14.281 3.407 14.307 3.354 C 14.52 2.836 15.036 2.479 15.594 2.479 C 15.713 2.479 15.832 2.492 15.951 2.519 C 16.017 2.532 16.389 2.638 16.853 2.903 C 16.693 2.705 16.521 2.612 16.507 2.598 C 15.924 2.253 15.659 1.55 15.911 0.901 C 15.936 0.835 15.964 0.768 16.003 0.715 C 16.255 0.277 16.72 0.012 17.224 0.012 C 17.462 0.012 17.701 0.078 17.913 0.199 C 17.952 0.212 18.39 0.477 18.854 0.968 C 18.879 0.875 18.92 0.782 18.973 0.69 C 19.078 0.504 19.225 0.345 19.411 0.226 C 19.636 0.079 19.902 0 20.18 0 C 20.658 0 21.081 0.238 21.347 0.623 C 21.4 0.689 21.652 1.101 21.825 1.71 C 21.944 1.591 22.09 1.485 22.263 1.405 C 22.461 1.312 22.674 1.272 22.886 1.286 C 23.257 1.3 23.602 1.458 23.854 1.737 C 24.106 2.015 24.239 2.36 24.225 2.731 C 24.225 2.771 24.186 3.778 23.563 4.759 C 24.332 6.257 24.106 8.127 22.965 9.4 C 22.169 10.289 21.056 10.779 19.902 10.779 Z  M 15.447 6.431 C 15.314 6.431 15.195 6.484 15.102 6.577 C 14.929 6.763 14.943 7.068 15.128 7.227 C 15.606 7.665 16.176 7.943 16.812 8.036 L 17.039 8.062 L 17.144 8.261 C 17.303 8.539 17.515 8.804 17.767 9.017 C 18.351 9.547 19.107 9.838 19.902 9.838 C 20.804 9.838 21.666 9.454 22.275 8.791 C 23.216 7.743 23.363 6.179 22.621 4.985 L 22.461 4.72 L 22.647 4.468 C 23.257 3.632 23.297 2.704 23.297 2.691 C 23.297 2.572 23.257 2.453 23.178 2.36 C 23.098 2.267 22.979 2.214 22.86 2.214 L 22.833 2.214 C 22.768 2.214 22.701 2.228 22.647 2.254 C 22.489 2.32 22.382 2.48 22.37 2.651 C 22.37 2.705 22.33 3.182 22.052 3.672 L 21.825 4.07 L 21.428 3.858 C 21.388 3.832 21.348 3.818 21.309 3.792 L 21.003 3.646 L 21.043 3.314 C 21.201 2.094 20.578 1.126 20.565 1.126 C 20.472 0.993 20.339 0.914 20.181 0.914 C 20.087 0.914 20.007 0.94 19.929 0.993 C 19.863 1.033 19.822 1.086 19.783 1.152 C 19.69 1.298 19.703 1.484 19.797 1.643 C 19.863 1.762 20.182 2.319 20.141 3.048 L 20.116 3.459 L 19.704 3.485 C 19.638 3.485 19.571 3.499 19.518 3.499 L 19.094 3.552 L 19 3.143 C 18.694 1.711 17.476 1.008 17.462 1.008 C 17.396 0.968 17.316 0.942 17.236 0.942 C 17.063 0.942 16.919 1.035 16.825 1.18 C 16.811 1.207 16.799 1.22 16.799 1.246 C 16.72 1.459 16.799 1.697 16.997 1.816 C 17.117 1.882 18.111 2.519 18.138 3.779 L 18.138 4.017 L 17.952 4.163 C 17.886 4.217 17.833 4.256 17.78 4.309 L 17.462 4.6 L 17.157 4.295 C 16.507 3.658 15.764 3.46 15.725 3.446 C 15.684 3.433 15.645 3.433 15.605 3.433 C 15.419 3.433 15.247 3.552 15.18 3.724 C 15.167 3.738 15.167 3.764 15.167 3.778 C 15.101 4.016 15.246 4.281 15.498 4.347 C 15.592 4.374 16.348 4.613 16.824 5.342 L 16.943 5.528 L 16.877 5.74 C 16.811 5.966 16.758 6.204 16.744 6.443 L 16.68 7.253 L 16.017 6.789 C 15.924 6.723 15.845 6.669 15.779 6.603 C 15.672 6.471 15.566 6.431 15.447 6.431 Z " fill="rgb(35,31,32)"/></g><g id="Group"><path d=" M 17.794 28.321 C 17.794 28.321 16.944 27.049 16.932 27.061 L 16.932 27.061 L 16.945 27.048 C 16.959 27.034 16.972 27.022 16.985 26.994 C 17.051 26.915 17.144 26.782 17.277 26.584 C 17.41 26.397 17.555 26.146 17.715 25.841 C 17.874 25.549 18.033 25.192 18.192 24.794 C 18.352 24.396 18.498 23.958 18.643 23.481 C 18.776 23.004 18.895 22.487 18.989 21.957 C 19.081 21.413 19.147 20.856 19.187 20.273 C 19.2 20.127 19.2 19.981 19.213 19.835 C 19.213 19.689 19.227 19.543 19.227 19.397 C 19.241 19.105 19.227 18.8 19.227 18.508 C 19.213 17.911 19.174 17.315 19.121 16.732 C 19.055 16.148 18.989 15.565 18.882 15.007 C 18.857 14.861 18.843 14.729 18.817 14.597 C 18.791 14.464 18.763 14.318 18.738 14.186 C 18.684 13.92 18.631 13.656 18.565 13.404 C 18.499 13.152 18.445 12.9 18.378 12.661 C 18.325 12.423 18.246 12.183 18.192 11.972 C 18.126 11.746 18.073 11.534 18.006 11.336 C 17.94 11.137 17.887 10.938 17.82 10.766 C 17.767 10.58 17.715 10.421 17.662 10.262 C 17.608 10.103 17.556 9.97 17.516 9.837 C 17.33 9.32 17.238 9.028 17.238 9.028 L 23.63 7.145 C 23.63 7.145 23.709 7.503 23.841 8.113 C 23.868 8.272 23.907 8.445 23.947 8.631 C 23.987 8.817 24.013 9.028 24.053 9.24 C 24.092 9.453 24.133 9.691 24.172 9.929 C 24.212 10.168 24.252 10.433 24.291 10.711 C 24.331 10.977 24.371 11.255 24.41 11.56 C 24.437 11.852 24.476 12.157 24.504 12.475 C 24.543 12.78 24.557 13.112 24.583 13.443 C 24.596 13.602 24.609 13.775 24.623 13.947 C 24.636 14.12 24.636 14.292 24.649 14.465 C 24.675 15.154 24.675 15.87 24.662 16.6 C 24.636 17.329 24.596 18.072 24.504 18.814 C 24.463 19.185 24.424 19.556 24.358 19.928 C 24.332 20.114 24.305 20.299 24.265 20.485 C 24.225 20.671 24.199 20.856 24.159 21.029 C 24.013 21.758 23.828 22.473 23.616 23.15 C 23.403 23.826 23.165 24.476 22.899 25.086 C 22.634 25.696 22.356 26.253 22.064 26.757 C 21.772 27.261 21.495 27.712 21.202 28.11 C 20.925 28.507 20.659 28.839 20.421 29.104 C 20.182 29.37 19.983 29.582 19.823 29.727 C 19.731 29.807 19.665 29.873 19.625 29.913 C 19.559 29.979 19.559 29.979 19.546 29.979 L 17.794 28.321 L 17.794 28.321 Z " fill="rgb(255,199,172)"/><path d=" M 19.583 30.788 L 17.382 28.759 L 17.382 28.759 C 17.29 28.666 17.196 28.521 17.064 28.321 C 16.918 28.109 16.654 27.712 16.521 27.526 L 16.003 27.247 L 16.493 26.624 C 16.534 26.571 16.626 26.452 16.759 26.253 C 16.878 26.081 17.025 25.842 17.17 25.564 C 17.316 25.299 17.476 24.967 17.621 24.583 C 17.753 24.252 17.899 23.854 18.046 23.324 C 18.165 22.886 18.284 22.395 18.376 21.865 C 18.483 21.255 18.536 20.738 18.563 20.248 L 18.589 19.823 C 18.589 19.677 18.603 19.531 18.603 19.399 C 18.616 19.173 18.616 18.961 18.603 18.736 L 18.603 18.537 C 18.589 18.007 18.563 17.436 18.497 16.813 C 18.431 16.176 18.351 15.62 18.271 15.129 L 18.245 14.97 C 18.232 14.89 18.219 14.797 18.205 14.718 L 18.125 14.32 C 18.112 14.227 18.086 14.134 18.072 14.042 C 18.047 13.87 18.006 13.711 17.967 13.564 L 17.781 12.809 C 17.741 12.663 17.701 12.517 17.662 12.384 C 17.635 12.305 17.608 12.212 17.596 12.132 C 17.569 12.053 17.556 11.973 17.53 11.894 C 17.49 11.761 17.464 11.642 17.424 11.523 L 17.093 10.461 L 16.456 8.645 L 24.08 6.405 L 24.53 8.54 L 24.769 9.839 C 24.795 10.012 24.823 10.197 24.848 10.383 C 24.862 10.462 24.875 10.542 24.888 10.635 C 24.902 10.728 24.914 10.821 24.928 10.913 C 24.954 11.099 24.981 11.298 25.008 11.496 L 25.1 12.411 C 25.127 12.623 25.14 12.849 25.153 13.074 C 25.167 13.18 25.167 13.286 25.18 13.392 L 25.219 13.896 C 25.233 14.029 25.233 14.148 25.233 14.267 L 25.233 14.426 C 25.26 15.075 25.273 15.791 25.247 16.601 C 25.22 17.41 25.167 18.152 25.088 18.868 L 25.062 19.054 C 25.022 19.372 24.982 19.691 24.929 20.023 L 24.836 20.592 L 24.73 21.136 C 24.597 21.813 24.412 22.515 24.173 23.311 C 23.947 24.04 23.695 24.703 23.431 25.313 C 23.126 26.002 22.847 26.573 22.569 27.049 C 22.264 27.58 21.959 28.057 21.681 28.455 C 21.389 28.852 21.124 29.197 20.859 29.489 C 20.646 29.741 20.421 29.967 20.236 30.152 L 20.023 30.35 C 19.997 30.376 19.97 30.404 19.957 30.416 L 19.583 30.788 L 19.583 30.788 Z  M 18.245 27.924 L 19.558 29.13 C 19.664 29.025 19.81 28.865 19.983 28.666 C 20.208 28.401 20.46 28.083 20.725 27.725 C 20.991 27.354 21.268 26.93 21.547 26.426 C 21.799 25.988 22.064 25.458 22.342 24.808 C 22.58 24.238 22.82 23.615 23.031 22.939 C 23.257 22.196 23.429 21.52 23.549 20.883 L 23.654 20.34 L 23.748 19.796 C 23.801 19.491 23.84 19.199 23.867 18.895 L 23.893 18.709 C 23.972 18.032 24.012 17.316 24.039 16.548 C 24.053 15.778 24.053 15.089 24.025 14.452 L 24.025 14.28 C 24.025 14.174 24.012 14.054 24.012 13.948 L 23.972 13.458 C 23.959 13.352 23.959 13.246 23.946 13.127 C 23.933 12.914 23.92 12.716 23.893 12.517 L 23.787 11.602 C 23.773 11.416 23.734 11.245 23.721 11.058 C 23.708 10.965 23.695 10.86 23.682 10.767 C 23.668 10.687 23.655 10.608 23.642 10.515 C 23.616 10.342 23.588 10.17 23.563 10.011 L 23.297 8.579 L 23.15 7.862 L 17.98 9.387 L 18.205 10.036 L 18.55 11.11 C 18.59 11.243 18.629 11.388 18.67 11.521 C 18.695 11.6 18.709 11.68 18.736 11.759 C 18.761 11.852 18.775 11.932 18.801 12.011 C 18.841 12.157 18.894 12.316 18.934 12.489 L 19.12 13.231 C 19.16 13.404 19.199 13.589 19.239 13.761 C 19.253 13.854 19.279 13.934 19.293 14.027 L 19.372 14.438 C 19.385 14.543 19.412 14.636 19.426 14.73 L 19.451 14.876 C 19.545 15.393 19.624 15.963 19.69 16.64 C 19.755 17.303 19.796 17.899 19.796 18.469 L 19.796 18.668 C 19.796 18.906 19.809 19.146 19.796 19.397 C 19.796 19.529 19.782 19.675 19.782 19.821 L 19.782 19.847 L 19.756 20.285 C 19.73 20.803 19.663 21.359 19.544 22.022 C 19.438 22.605 19.317 23.136 19.186 23.613 C 19.013 24.183 18.868 24.621 18.708 24.992 C 18.536 25.417 18.363 25.788 18.204 26.093 C 18.032 26.399 17.886 26.663 17.74 26.875 C 17.7 26.929 17.674 26.981 17.634 27.021 C 17.753 27.207 17.913 27.432 18.032 27.604 C 18.138 27.765 18.205 27.871 18.245 27.924 Z " fill="rgb(35,31,32)"/></g><g id="Group"><path d=" M 17.714 12.809 L 16.388 8.91 L 24 6.762 L 24.914 10.846 L 17.714 12.809 Z " fill="rgb(241,242,242)"/><rect x="20.187" y="6.106" width="1.193" height="7.676" transform="matrix(-0.277,-0.961,0.961,-0.277,16.978,32.668)" fill="rgb(0,0,255)"/><path d=" M 16.229 8.34 L 23.839 6.193 C 23.999 6.153 24.171 6.166 24.304 6.259 C 24.45 6.338 24.542 6.484 24.582 6.643 L 25.511 10.727 C 25.576 11.045 25.391 11.35 25.086 11.43 L 17.873 13.392 C 17.567 13.471 17.249 13.312 17.157 13.007 L 15.831 9.11 C 15.778 8.951 15.791 8.792 15.87 8.645 C 15.911 8.566 15.977 8.486 16.056 8.433 C 16.097 8.38 16.164 8.354 16.229 8.34 Z  M 24.211 10.408 L 23.548 7.505 L 17.157 9.308 L 18.098 12.079 L 24.211 10.408 L 24.211 10.408 Z " fill="rgb(35,31,32)"/></g></g></g></svg>