<?xml version="1.0" standalone="no"?><!-- Generator: Gravit.io --><svg xmlns="http://www.w3.org/2000/svg" xmlns:xlink="http://www.w3.org/1999/xlink" style="isolation:isolate" viewBox="0 0 23.999 22.195" width="23.999" height="22.195"><defs><clipPath id="_clipPath_I5W0i9tiRVMKOMhPNxoF1LK9w3MTwEKa"><rect width="23.999" height="22.195"/></clipPath></defs><g clip-path="url(#_clipPath_I5W0i9tiRVMKOMhPNxoF1LK9w3MTwEKa)"><clipPath id="_clipPath_PpPEmm22uwMDMkJJtahzjzJCGafAhdfS"><rect x="0" y="0" width="23.999" height="22.195" transform="matrix(1,0,0,1,0,0)" fill="rgb(255,255,255)"/></clipPath><g clip-path="url(#_clipPath_PpPEmm22uwMDMkJJtahzjzJCGafAhdfS)"><g id="Group"><clipPath id="_clipPath_buwIMFYz9Jp9CO2262mgkhGdMSo84Fhl"><rect x="0" y="0" width="23.999" height="22.195" transform="matrix(1,0,0,1,0,0)" fill="rgb(255,255,255)"/></clipPath><g clip-path="url(#_clipPath_buwIMFYz9Jp9CO2262mgkhGdMSo84Fhl)"><g id="Group"><g id="Group"><g id="Group"><g id="Group"><path d=" M 7.744 18.351 L 1.645 18.351 C 1.645 9.163 3.289 4.827 3.355 4.482 L 9.321 5.715 L 6.338 5.092 L 9.321 5.701 C 9.321 5.794 7.744 9.812 7.744 18.351 Z " fill="rgb(255,199,172)"/><rect x="1" y="9.931" width="7.922" height="5.873" transform="matrix(1,0,0,1,0,0)" fill="rgb(0,0,0)"/><path d=" M 0 18.351 C 0 9.11 2.027 4.707 2.109 4.363 L 2.255 3.78 L 11 5.252 L 10.853 5.835 C 10.837 5.914 8.922 9.904 8.922 18.351 L 8.922 18.948 L 0 18.948 L 0 18.351 L 0 18.351 L 0 18.351 Z  M 9.296 6.179 L 3.406 5.185 C 2.953 7.173 1.54 10.156 1.476 17.74 L 7.479 17.74 C 7.543 10.767 8.858 8.102 9.296 6.179 Z " fill="rgb(35,31,32)"/><g id="Group"><path d=" M 12.463 0.597 L 11.177 0.597 L 2.625 1.074 C 2.625 1.074 1.14 3.513 1.14 9.347 C 3.54 9.347 10.275 9.347 10.275 9.347 L 10.726 4.918 L 11.985 5.303 L 12.131 5.263 C 12 2.453 12.106 3.381 12.463 0.597 Z " fill="rgb(0,0,0)"/><path d=" M 12.106 4.627 L 11.986 4.667 L 10.25 4.15 L 9.786 8.737 L 1.697 8.737 C 1.777 4.096 2.744 3.062 3.063 1.644 L 11.191 1.193 L 12.384 1.193 C 12.424 0.796 12.477 0.397 12.53 0 L 11.178 0 L 2.201 0.49 L 2.095 0.915 C 2.029 1.167 0.597 3.487 0.597 9.334 L 0.597 9.931 L 10.767 9.931 L 11.191 5.662 C 11.191 5.662 11.575 5.781 11.986 5.781 C 12.053 5.781 12.106 5.781 12.172 5.767 C 12.132 5.396 12.12 5.012 12.106 4.627 Z " fill="rgb(35,31,32)"/></g><g id="Group"><rect x="0.478" y="20.141" width="8.313" height="1.591" transform="matrix(1,0,0,1,0,0)" fill="rgb(239,237,242)"/><path d=" M 8.778 22.195 L 0.464 22.195 C 0.212 22.195 0 21.983 0 21.731 L 0 20.14 C 0 19.888 0.212 19.676 0.464 19.676 L 8.777 19.676 C 9.029 19.676 9.241 19.888 9.241 20.14 L 9.241 21.731 C 9.242 21.983 9.043 22.195 8.778 22.195 Z  M 0.941 21.268 L 8.326 21.268 L 8.326 20.605 L 0.941 20.605 L 0.941 21.268 L 0.941 21.268 L 0.941 21.268 L 0.941 21.268 Z " fill="rgb(35,31,32)"/></g><g id="Group"><rect x="0.478" y="15.01" width="8.313" height="5.131" transform="matrix(1,0,0,1,0,0)" fill="rgb(117,236,117)"/><path d=" M 8.778 20.604 L 0.464 20.604 C 0.212 20.604 0 20.393 0 20.141 L 0 15.01 C 0 14.758 0.212 14.545 0.464 14.545 L 8.777 14.545 C 9.029 14.545 9.241 14.758 9.241 15.01 L 9.241 20.141 C 9.242 20.393 9.043 20.604 8.778 20.604 Z  M 0.941 19.677 L 8.326 19.677 L 8.326 15.474 L 0.941 15.474 L 0.941 19.677 L 0.941 19.677 L 0.941 19.677 L 0.941 19.677 Z " fill="rgb(35,31,32)"/></g></g></g><g id="Group"><g id="Group"><path d=" M 16.256 18.351 L 22.355 18.351 C 22.355 9.163 20.711 4.827 20.645 4.482 L 14.678 5.715 L 17.66 5.092 L 14.678 5.701 C 14.692 5.794 16.256 9.812 16.256 18.351 Z " fill="rgb(255,199,172)"/><rect x="14.759" y="9.931" width="8.657" height="5.873" transform="matrix(1,0,0,1,0,0)" fill="rgb(0,0,0)"/><path d=" M 23.999 18.947 L 15.076 18.947 L 15.076 18.35 C 15.076 9.904 13.163 5.913 13.147 5.833 L 13 5.25 L 21.744 3.778 L 21.89 4.361 C 21.97 4.706 23.999 9.108 23.999 18.349 L 23.999 18.947 L 23.999 18.947 L 23.999 18.947 Z  M 16.536 17.754 L 22.538 17.754 C 22.475 10.17 21.061 7.173 20.608 5.197 L 14.719 6.192 C 15.157 8.102 16.455 10.767 16.536 17.754 Z " fill="rgb(35,31,32)"/><g id="Group"><path d=" M 11.549 0.597 L 12.835 0.597 L 21.388 1.075 C 21.388 1.075 22.872 3.514 22.872 9.348 C 20.473 9.348 13.737 9.348 13.737 9.348 L 13.286 4.919 L 12.027 5.304 L 11.881 5.264 C 12.013 2.453 11.907 3.381 11.549 0.597 Z " fill="rgb(0,0,0)"/><path d=" M 11.907 4.627 L 12.027 4.667 L 13.764 4.15 L 14.228 8.737 L 22.316 8.737 C 22.237 4.096 21.269 3.062 20.951 1.644 L 12.823 1.193 L 11.63 1.193 C 11.589 0.796 11.536 0.397 11.482 0 L 12.834 0 L 21.811 0.49 L 21.917 0.915 C 21.983 1.167 23.416 3.487 23.416 9.334 L 23.416 9.931 L 13.246 9.931 L 12.821 5.662 C 12.821 5.662 12.436 5.781 12.026 5.781 C 11.96 5.781 11.906 5.781 11.84 5.767 C 11.867 5.396 11.894 5.012 11.907 4.627 Z " fill="rgb(35,31,32)"/></g><g id="Group"><rect x="15.221" y="20.141" width="8.314" height="1.591" transform="matrix(1,0,0,1,0,0)" fill="rgb(239,237,242)"/><path d=" M 23.536 22.195 L 15.222 22.195 C 14.97 22.195 14.759 21.983 14.759 21.731 L 14.759 20.14 C 14.759 19.888 14.97 19.676 15.222 19.676 L 23.536 19.676 C 23.788 19.676 23.999 19.888 23.999 20.14 L 23.999 21.731 C 23.999 21.983 23.788 22.195 23.536 22.195 Z  M 15.686 21.268 L 23.071 21.268 L 23.071 20.605 L 15.686 20.605 L 15.686 21.268 L 15.686 21.268 L 15.686 21.268 L 15.686 21.268 Z " fill="rgb(35,31,32)"/></g><g id="Group"><rect x="15.221" y="15.01" width="8.314" height="5.131" transform="matrix(1,0,0,1,0,0)" fill="rgb(117,236,117)"/><path d=" M 23.536 20.604 L 15.222 20.604 C 14.97 20.604 14.759 20.392 14.759 20.14 L 14.759 15.01 C 14.759 14.758 14.97 14.545 15.222 14.545 L 23.536 14.545 C 23.788 14.545 23.999 14.758 23.999 15.01 L 23.999 20.141 C 23.999 20.393 23.788 20.604 23.536 20.604 Z  M 15.686 19.677 L 23.071 19.677 L 23.071 15.474 L 15.686 15.474 L 15.686 19.677 L 15.686 19.677 L 15.686 19.677 L 15.686 19.677 Z " fill="rgb(35,31,32)"/></g></g></g></g></g></g></g></g></g></svg>