<?xml version="1.0" standalone="no"?><!-- Generator: Gravit.io --><svg xmlns="http://www.w3.org/2000/svg" xmlns:xlink="http://www.w3.org/1999/xlink" style="isolation:isolate" viewBox="0 0 200 200" width="200" height="200"><defs><clipPath id="_clipPath_0GqifUD64DmvTWVEVMOZmj267O1ERt9Y"><rect width="200" height="200"/></clipPath></defs><g clip-path="url(#_clipPath_0GqifUD64DmvTWVEVMOZmj267O1ERt9Y)"><g id="Group"><g id="Group"><path d=" M 45.358 107.485 L 9.635 107.485 C 9.635 53.669 19.264 28.273 19.651 26.252 L 54.595 33.474 L 37.123 29.825 L 54.595 33.392 C 54.595 33.936 45.358 57.471 45.358 107.485 Z " fill="rgb(255,199,172)"/><rect x="10.56" y="71.212" width="35.881" height="21.355" transform="matrix(1,0,0,1,0,0)" fill="rgb(255,255,255)"/><path d=" M 6.138 107.485 C 6.138 53.359 15.844 27.57 16.236 25.555 L 16.933 22.14 L 58.794 30.762 L 58.091 34.177 C 58.015 34.639 48.849 58.009 48.849 107.485 L 48.849 110.982 L 6.138 110.982 L 6.138 107.485 Z  M 50.635 36.191 L 22.445 30.369 C 20.272 42.014 13.513 59.485 13.202 103.906 L 41.937 103.906 C 42.248 63.064 48.538 47.455 50.635 36.191 Z " fill="rgb(35,31,32)"/><g id="Group"><path d=" M 72.998 3.497 L 65.466 3.497 L 15.375 6.291 C 15.375 6.291 6.677 20.576 6.677 54.747 C 20.734 54.747 60.182 54.747 60.182 54.747 L 62.824 28.806 L 70.198 31.061 L 71.053 30.826 C 70.286 14.368 70.907 19.803 72.998 3.497 Z " fill="rgb(0,0,255)"/><path d=" M 70.907 27.101 L 70.204 27.335 L 60.036 24.307 L 57.318 51.174 L 9.94 51.174 C 10.408 23.991 16.072 17.935 17.941 9.629 L 65.548 6.988 L 72.535 6.988 C 72.77 4.662 73.08 2.325 73.39 0 L 65.472 0 L 12.892 2.87 L 12.271 5.359 C 11.884 6.835 3.497 20.424 3.497 54.671 L 3.497 58.168 L 63.064 58.168 L 65.548 33.163 C 65.548 33.163 67.797 33.86 70.204 33.86 C 70.597 33.86 70.907 33.86 71.294 33.778 C 71.059 31.605 70.989 29.356 70.907 27.101 Z " fill="rgb(35,31,32)"/></g><g id="Group"><rect x="2.8" y="117.969" width="48.691" height="9.319" transform="matrix(1,0,0,1,0,0)" fill="rgb(239,237,242)"/><path d=" M 51.414 130 L 2.718 130 C 1.242 130 0 128.758 0 127.282 L 0 117.964 C 0 116.487 1.242 115.246 2.718 115.246 L 51.408 115.246 C 52.884 115.246 54.126 116.487 54.126 117.964 L 54.126 127.282 C 54.132 128.758 52.966 130 51.414 130 Z  M 5.512 124.57 L 48.767 124.57 L 48.767 120.687 L 5.512 120.687 L 5.512 124.57 Z " fill="rgb(35,31,32)"/></g><g id="Group"><rect x="2.8" y="87.916" width="48.691" height="30.053" transform="matrix(1,0,0,1,0,0)" fill="rgb(0,0,255)"/><path d=" M 51.414 120.681 L 2.718 120.681 C 1.242 120.681 0 119.445 0 117.969 L 0 87.916 C 0 86.44 1.242 85.193 2.718 85.193 L 51.408 85.193 C 52.884 85.193 54.126 86.44 54.126 87.916 L 54.126 117.969 C 54.132 119.445 52.966 120.681 51.414 120.681 Z  M 5.512 115.252 L 48.767 115.252 L 48.767 90.634 L 5.512 90.634 L 5.512 115.252 Z " fill="rgb(35,31,32)"/></g><rect x="35.805" y="86.516" width="5.435" height="31.453" transform="matrix(1,0,0,1,0,0)" fill="rgb(35,31,32)"/><rect x="14.292" y="86.516" width="5.435" height="31.453" transform="matrix(1,0,0,1,0,0)" fill="rgb(35,31,32)"/></g></g><g id="Group"><g id="Group"><path d=" M 95.214 107.485 L 130.937 107.485 C 130.937 53.669 121.308 28.273 120.921 26.252 L 85.972 33.474 L 103.438 29.825 L 85.972 33.392 C 86.054 33.936 95.214 57.471 95.214 107.485 Z " fill="rgb(255,199,172)"/><rect x="94.201" y="71.212" width="35.881" height="21.355" transform="matrix(1,0,0,1,0,0)" fill="rgb(255,255,255)"/><path d=" M 134.434 110.976 L 91.718 110.976 L 91.718 107.479 C 91.718 58.009 82.557 34.633 82.481 34.165 L 81.778 30.75 L 123.639 22.128 L 124.336 25.543 C 124.723 27.564 134.434 53.347 134.434 107.473 L 134.434 110.976 Z  M 98.705 103.988 L 127.44 103.988 C 127.136 59.567 120.371 42.014 118.198 30.44 L 90.007 36.268 C 92.104 47.455 98.319 63.064 98.705 103.988 Z " fill="rgb(35,31,32)"/><g id="Group"><path d=" M 67.645 3.497 L 75.177 3.497 L 125.273 6.296 C 125.273 6.296 133.965 20.582 133.965 54.753 C 119.914 54.753 80.46 54.753 80.46 54.753 L 77.818 28.811 L 70.444 31.066 L 69.589 30.832 C 70.362 14.368 69.741 19.803 67.645 3.497 Z " fill="rgb(0,0,255)"/><path d=" M 69.741 27.101 L 70.444 27.335 L 80.618 24.307 L 83.336 51.174 L 130.709 51.174 C 130.246 23.991 124.576 17.935 122.714 9.629 L 75.107 6.988 L 68.119 6.988 C 67.879 4.662 67.568 2.325 67.252 0 L 75.171 0 L 127.751 2.87 L 128.372 5.359 C 128.758 6.835 137.152 20.424 137.152 54.671 L 137.152 58.168 L 77.584 58.168 L 75.095 33.163 C 75.095 33.163 72.84 33.86 70.438 33.86 C 70.052 33.86 69.736 33.86 69.349 33.778 C 69.507 31.605 69.665 29.356 69.741 27.101 Z " fill="rgb(35,31,32)"/></g><g id="Group"><rect x="89.152" y="117.969" width="48.697" height="9.319" transform="matrix(1,0,0,1,0,0)" fill="rgb(239,237,242)"/><path d=" M 137.854 130 L 89.158 130 C 87.682 130 86.446 128.758 86.446 127.282 L 86.446 117.964 C 86.446 116.487 87.682 115.246 89.158 115.246 L 137.854 115.246 C 139.33 115.246 140.566 116.487 140.566 117.964 L 140.566 127.282 C 140.566 128.758 139.33 130 137.854 130 Z  M 91.876 124.57 L 135.131 124.57 L 135.131 120.687 L 91.876 120.687 L 91.876 124.57 Z " fill="rgb(35,31,32)"/></g><g id="Group"><rect x="89.152" y="87.916" width="48.697" height="30.053" transform="matrix(1,0,0,1,0,0)" fill="rgb(0,0,255)"/><path d=" M 137.854 120.681 L 89.158 120.681 C 87.682 120.681 86.446 119.44 86.446 117.964 L 86.446 87.916 C 86.446 86.44 87.682 85.193 89.158 85.193 L 137.854 85.193 C 139.33 85.193 140.566 86.44 140.566 87.916 L 140.566 117.969 C 140.566 119.445 139.33 120.681 137.854 120.681 Z  M 91.876 115.252 L 135.131 115.252 L 135.131 90.634 L 91.876 90.634 L 91.876 115.252 Z " fill="rgb(35,31,32)"/></g><rect x="99.326" y="86.516" width="5.441" height="31.453" transform="matrix(1,0,0,1,0,0)" fill="rgb(35,31,32)"/><rect x="120.921" y="86.516" width="5.435" height="31.453" transform="matrix(1,0,0,1,0,0)" fill="rgb(35,31,32)"/></g></g></g></svg>