<?xml version="1.0" standalone="no"?><!-- Generator: Gravit.io --><svg xmlns="http://www.w3.org/2000/svg" xmlns:xlink="http://www.w3.org/1999/xlink" style="isolation:isolate" viewBox="0 0 24.822 51.141" width="24.822" height="51.141"><defs><clipPath id="_clipPath_SXc7hQOdLLJDDE2ywKKYii4evTmlsp3X"><rect width="24.822" height="51.141"/></clipPath></defs><g clip-path="url(#_clipPath_SXc7hQOdLLJDDE2ywKKYii4evTmlsp3X)"><clipPath id="_clipPath_3iYeiVw4oz3s3ACTEaBYR95am9FsN2YN"><rect x="0" y="0" width="24.822" height="51.141" transform="matrix(1,0,0,1,0,0)" fill="rgb(255,255,255)"/></clipPath><g clip-path="url(#_clipPath_3iYeiVw4oz3s3ACTEaBYR95am9FsN2YN)"><g id="Group"><g id="Group"><path d=" M 3.368 38.358 L 3.235 27.394 L 11.031 23.403 C 11.336 23.006 11.853 24.822 12.715 24.981 C 13.577 24.835 14.095 23.005 14.4 23.403 L 22.196 27.858 L 21.692 38.359 C 21.692 38.359 24.198 46.487 24.198 50.545 C 20.247 50.545 4.548 50.545 0.584 50.545 C 0.597 46.486 3.368 38.358 3.368 38.358 Z " fill="rgb(138,49,138)"/><path d=" M 24.808 51.141 L 0 51.141 L 0 50.544 C 0 46.619 2.44 39.247 2.771 38.266 L 2.639 27.036 L 10.687 22.913 C 10.819 22.807 10.965 22.754 11.138 22.754 C 11.589 22.754 11.841 23.138 12.119 23.576 C 12.251 23.788 12.516 24.199 12.729 24.345 C 12.928 24.199 13.193 23.788 13.339 23.576 C 13.616 23.138 13.868 22.754 14.319 22.754 C 14.491 22.754 14.651 22.82 14.784 22.926 L 22.832 27.514 L 22.314 38.281 C 22.62 39.275 24.821 46.635 24.821 50.546 L 24.821 51.143 L 24.808 51.143 L 24.808 51.141 L 24.808 51.141 Z  M 1.207 49.947 L 23.588 49.947 C 23.377 45.863 21.149 38.61 21.123 38.531 L 21.096 38.425 L 21.586 28.176 L 14.4 24.079 C 14.373 24.118 14.347 24.158 14.32 24.198 C 13.988 24.715 13.538 25.418 12.809 25.551 L 12.703 25.564 L 12.597 25.551 C 11.881 25.418 11.43 24.715 11.085 24.198 C 11.059 24.158 11.032 24.105 11.006 24.065 L 3.819 27.738 L 3.951 38.438 L 3.911 38.531 C 3.912 38.624 1.445 45.877 1.207 49.947 Z " fill="rgb(35,31,32)"/></g><g id="Group"><path d=" M 19.199 20.088 C 19.199 18.705 20.322 17.582 21.705 17.582 C 23.088 17.582 24.211 18.705 24.211 20.088 C 24.211 21.471 23.088 22.594 21.705 22.594 C 20.322 22.594 19.199 21.471 19.199 20.088 Z " fill="rgb(255,199,172)"/><path d=" M 21.705 23.19 C 19.995 23.19 18.603 21.797 18.603 20.087 C 18.603 18.376 19.995 16.984 21.705 16.984 C 23.416 16.984 24.809 18.376 24.809 20.087 C 24.808 21.798 23.416 23.19 21.705 23.19 Z  M 21.705 18.179 C 20.658 18.179 19.797 19.04 19.797 20.088 C 19.797 21.135 20.658 21.997 21.705 21.997 C 22.754 21.997 23.615 21.135 23.615 20.088 C 23.615 19.04 22.753 18.179 21.705 18.179 Z " fill="rgb(35,31,32)"/></g><g id="Group"><path d=" M 1.379 20.088 C 1.379 18.705 2.502 17.582 3.885 17.582 C 5.268 17.582 6.391 18.705 6.391 20.088 C 6.391 21.471 5.268 22.594 3.885 22.594 C 2.502 22.594 1.379 21.471 1.379 20.088 Z " fill="rgb(255,199,172)"/><path d=" M 3.885 23.19 C 2.175 23.19 0.782 21.797 0.782 20.087 C 0.782 18.376 2.174 16.984 3.885 16.984 C 5.596 16.984 6.988 18.376 6.988 20.087 C 6.988 21.798 5.595 23.19 3.885 23.19 Z  M 3.885 18.179 C 2.838 18.179 1.976 19.04 1.976 20.088 C 1.976 21.135 2.838 21.997 3.885 21.997 C 4.933 21.997 5.795 21.135 5.795 20.088 C 5.794 19.04 4.933 18.179 3.885 18.179 Z " fill="rgb(35,31,32)"/></g><g id="Group"><path d=" M 3.235 20.062 C 3.235 25.299 7.478 29.541 12.715 29.541 L 12.715 29.541 C 17.952 29.541 22.195 25.299 22.195 20.062 L 22.195 16.256 C 22.195 11.019 17.952 6.776 12.715 6.776 L 12.715 6.776 C 7.478 6.776 3.235 11.019 3.235 16.256 L 3.235 17.184 L 3.235 18.59 L 3.235 20.062 L 3.235 20.062 L 3.235 20.062 Z " fill="rgb(0,0,0)"/><path d=" M 12.715 30.138 C 7.16 30.138 2.638 25.617 2.638 20.062 L 2.638 16.256 C 2.638 10.7 7.159 6.179 12.715 6.179 C 18.271 6.179 22.792 10.7 22.792 16.256 L 22.792 20.062 C 22.792 25.617 18.271 30.138 12.715 30.138 Z  M 12.715 7.372 C 7.822 7.372 3.832 11.363 3.832 16.256 L 3.832 20.062 C 3.832 24.955 7.823 28.946 12.715 28.946 C 17.609 28.946 21.599 24.955 21.599 20.062 L 21.599 16.256 C 21.599 11.363 17.622 7.372 12.715 7.372 Z " fill="rgb(35,31,32)"/></g></g></g></g></svg>