<?xml version="1.0" standalone="no"?><!-- Generator: Gravit.io --><svg xmlns="http://www.w3.org/2000/svg" xmlns:xlink="http://www.w3.org/1999/xlink" style="isolation:isolate" viewBox="0 0 362.51 517.431" width="362.51" height="517.431"><defs><clipPath id="_clipPath_oq4ne0LBpW1vaA3LC0RDVG88MAh2Zm4x"><rect width="362.51" height="517.431"/></clipPath></defs><g clip-path="url(#_clipPath_oq4ne0LBpW1vaA3LC0RDVG88MAh2Zm4x)"><g id="Layer_2"><g id="Group"><path d=" M 133.129 99.04 C 133.129 112.732 122.028 123.834 108.335 123.834 C 94.641 123.834 83.539 112.732 83.539 99.04 C 83.539 85.344 94.641 74.242 108.335 74.242 C 122.028 74.242 133.129 85.343 133.129 99.04 Z " fill="rgb(191,115,96)" vector-effect="non-scaling-stroke" stroke-width="9" stroke="rgb(35,31,32)" stroke-linejoin="miter" stroke-linecap="butt" stroke-miterlimit="10"/><path d=" M 264.868 99.04 C 264.868 112.732 253.767 123.834 240.074 123.834 C 226.38 123.834 215.278 112.732 215.278 99.04 C 215.278 85.344 226.38 74.242 240.074 74.242 C 253.768 74.242 264.868 85.343 264.868 99.04 Z " fill="rgb(191,115,96)" vector-effect="non-scaling-stroke" stroke-width="9" stroke="rgb(35,31,32)" stroke-linejoin="miter" stroke-linecap="butt" stroke-miterlimit="10"/><path d=" M 245.978 104.734 C 245.978 144.222 213.966 176.234 174.478 176.234 L 174.478 176.234 C 134.99 176.234 102.978 144.222 102.978 104.734 L 102.978 76 C 102.978 36.512 134.99 4.5 174.478 4.5 L 174.478 4.5 C 213.966 4.5 245.978 36.512 245.978 76 L 245.978 82.997 L 245.978 93.63 L 245.978 104.734 L 245.978 104.734 Z " fill="rgb(191,115,96)" vector-effect="non-scaling-stroke" stroke-width="9" stroke="rgb(35,31,32)" stroke-linejoin="miter" stroke-linecap="butt" stroke-miterlimit="10"/><path d=" M 144.607 140.659 C 150.496 147.772 161.662 152.576 174.477 152.576 C 187.292 152.576 198.458 147.772 204.347 140.659 L 144.607 140.659 L 144.607 140.659 Z " fill="rgb(255,255,255)" vector-effect="non-scaling-stroke" stroke-width="8" stroke="rgb(35,31,32)" stroke-linejoin="round" stroke-linecap="round" stroke-miterlimit="10"/><g id="Group"><path d=" M 192.936 93.282 C 192.936 82.671 201.55 74.057 212.161 74.057 C 222.772 74.057 231.386 82.671 231.386 93.282 C 231.386 103.893 222.772 112.507 212.161 112.507 C 201.55 112.507 192.936 103.893 192.936 93.282 Z " fill="rgb(35,31,32)"/><path d=" M 198.502 93.282 C 198.502 85.666 204.685 79.483 212.301 79.483 C 219.917 79.483 226.1 85.666 226.1 93.282 C 226.1 100.898 219.917 107.081 212.301 107.081 C 204.685 107.081 198.502 100.898 198.502 93.282 Z " fill="rgb(255,255,255)"/><path d=" M 215.55 85.546 C 212.788 84.449 209.818 84.776 207.435 86.167 C 207.895 86.223 208.357 86.314 208.807 86.495 C 211.603 87.604 212.97 90.774 211.859 93.571 C 210.747 96.368 207.578 97.735 204.783 96.623 C 204.054 96.334 203.429 95.901 202.914 95.376 C 203.338 98.606 205.447 101.52 208.691 102.807 C 213.457 104.702 218.857 102.373 220.75 97.606 C 222.646 92.84 220.314 87.441 215.55 85.546 Z " fill="rgb(35,31,32)"/></g><g id="Group"><path d=" M 117.219 93.282 C 117.219 82.671 125.833 74.057 136.444 74.057 C 147.055 74.057 155.669 82.671 155.669 93.282 C 155.669 103.893 147.055 112.507 136.444 112.507 C 125.833 112.507 117.219 103.893 117.219 93.282 Z " fill="rgb(35,31,32)"/><path d=" M 122.505 93.282 C 122.505 85.666 128.688 79.483 136.304 79.483 C 143.92 79.483 150.103 85.666 150.103 93.282 C 150.103 100.898 143.92 107.081 136.304 107.081 C 128.688 107.081 122.505 100.898 122.505 93.282 Z " fill="rgb(255,255,255)"/><path d=" M 139.833 85.546 C 137.071 84.449 134.101 84.776 131.718 86.167 C 132.178 86.223 132.64 86.314 133.09 86.495 C 135.886 87.604 137.253 90.774 136.142 93.571 C 135.03 96.368 131.861 97.735 129.066 96.623 C 128.337 96.334 127.712 95.901 127.197 95.376 C 127.621 98.606 129.73 101.52 132.974 102.807 C 137.74 104.702 143.14 102.373 145.033 97.606 C 146.929 92.84 144.598 87.441 139.833 85.546 Z " fill="rgb(35,31,32)"/></g><path d=" M 190.165 121.402 C 185.942 124.658 179.897 126.695 173.185 126.695 C 166.181 126.695 159.906 124.475 155.669 120.971" fill="none" vector-effect="non-scaling-stroke" stroke-width="7" stroke="rgb(35,31,32)" stroke-linejoin="miter" stroke-linecap="round" stroke-miterlimit="10"/><path d=" M 153.159 34.316 C 155.805 37.876 165.402 43.682 174.999 43.682 C 184.596 43.682 194.192 37.876 196.838 34.316 C 202 27.37 219.407 18.464 238.166 43.409 C 238.831 44.293 239.466 44.912 240.073 45.305 C 228.587 21.179 203.987 4.5 175.487 4.5 C 147.776 4.5 123.765 20.275 111.897 43.325 C 130.631 18.489 148.003 27.378 153.159 34.316 Z " fill="rgb(0,0,255)"/></g></g><g id="Warstwa_2"><g opacity="0"><path d=" M 120.501 93.026 C 120.501 84.292 127.591 77.202 136.325 77.202 C 145.059 77.202 152.149 84.292 152.149 93.026 C 152.149 101.76 145.059 108.85 136.325 108.85 C 127.591 108.85 120.501 101.76 120.501 93.026 Z " fill="rgb(35,31,32)"/></g><g opacity="0"><path d=" M 196.478 93.026 C 196.478 84.292 203.568 77.202 212.302 77.202 C 221.036 77.202 228.126 84.292 228.126 93.026 C 228.126 101.76 221.036 108.85 212.302 108.85 C 203.568 108.85 196.478 101.76 196.478 93.026 Z " fill="rgb(35,31,32)"/></g></g><path d=" M 127 93.026 C 127 89.163 130.248 86.026 134.25 86.026 C 138.251 86.026 141.499 89.163 141.499 93.026 C 141.499 96.889 138.251 100.026 134.25 100.026 C 130.248 100.026 127 96.889 127 93.026 Z " fill="rgb(0,0,0)"/><path d=" M 203 93.026 C 203 89.163 206.585 86.026 211 86.026 C 215.415 86.026 219 89.163 219 93.026 C 219 96.889 215.415 100.026 211 100.026 C 206.585 100.026 203 96.889 203 93.026 Z " fill="rgb(0,0,0)"/></g></svg>